<svg xmlns="http://www.w3.org/2000/svg" xmlns:xlink="http://www.w3.org/1999/xlink" width="500" zoomAndPan="magnify" viewBox="0 0 375 374.999991" height="500" preserveAspectRatio="xMidYMid meet" version="1.0"><defs><g/><clipPath id="81474fe106"><path d="M 132.75 98.023438 L 242.175781 98.023438 L 242.175781 185.023438 L 132.75 185.023438 Z M 132.75 98.023438 " clip-rule="nonzero"/></clipPath></defs><g clip-path="url(#81474fe106)"><path fill="#403f3c" d="M 236.375 183.9375 L 173.054688 122.480469 L 187.460938 99.644531 L 240.621094 183.914062 L 236.421875 183.914062 Z M 217.011719 183.9375 L 196.105469 146.390625 L 234.8125 183.914062 L 217.054688 183.914062 Z M 179.445312 183.9375 L 181.363281 160.226562 L 214.957031 183.914062 L 179.464844 183.914062 Z M 180.203125 160.945312 L 178.328125 183.9375 L 161.554688 183.9375 Z M 193.671875 144.355469 L 215.023438 182.617188 L 181.722656 159.0625 Z M 172.566406 123.601562 L 193 143.414062 L 160.101562 183.9375 L 152.128906 183.9375 Z M 170.285156 126.871094 L 150.945312 183.914062 L 134.304688 183.914062 Z M 242.09375 184.183594 L 187.929688 98.28125 C 187.765625 98.019531 187.417969 97.945312 187.160156 98.113281 C 187.09375 98.15625 187.035156 98.214844 186.992188 98.28125 L 132.832031 184.183594 C 132.671875 184.445312 132.753906 184.792969 133.015625 184.953125 C 133.101562 185.003906 133.199219 185.03125 133.300781 185.035156 L 241.625 185.035156 C 241.933594 185.03125 242.179688 184.773438 242.175781 184.464844 C 242.171875 184.367188 242.144531 184.269531 242.09375 184.183594 " fill-opacity="1" fill-rule="nonzero"/></g><g fill="#403f3c" fill-opacity="1"><g transform="translate(72.260818, 244.834854)"><g><path d="M 19.746094 -25.214844 L 1.328125 -25.214844 L 1.328125 -24.570312 L 9.8125 -24.570312 L 9.8125 0.0820312 L 11.261719 0.0820312 L 11.261719 -24.570312 L 19.746094 -24.570312 Z M 19.746094 -25.214844 "/></g></g></g><g fill="#403f3c" fill-opacity="1"><g transform="translate(93.371679, 244.834854)"><g><path d="M 14.71875 -24.570312 L 14.71875 -25.214844 L 1.929688 -25.214844 L 1.929688 0.0390625 L 14.71875 0.0390625 L 14.71875 -0.601562 L 3.335938 -0.601562 L 3.335938 -12.828125 L 13.632812 -12.828125 L 13.632812 -13.472656 L 3.335938 -13.472656 L 3.335938 -24.570312 Z M 14.71875 -24.570312 "/></g></g></g><g fill="#403f3c" fill-opacity="1"><g transform="translate(109.818039, 244.834854)"><g><path d="M 19.625 0.0820312 L 10.175781 -11.863281 C 13.148438 -12.265625 17.652344 -13.714844 17.652344 -18.902344 C 17.652344 -24.449219 11.621094 -25.214844 9.570312 -25.214844 L 1.929688 -25.214844 L 1.929688 0.0820312 L 3.335938 0.0820312 L 3.335938 -11.703125 L 7.679688 -11.703125 C 7.84375 -11.703125 8.082031 -11.703125 8.445312 -11.703125 L 17.773438 0.0820312 Z M 6.996094 -12.347656 L 3.335938 -12.347656 L 3.335938 -24.570312 L 8.042969 -24.570312 C 12.144531 -24.570312 16.207031 -23.566406 16.207031 -18.457031 C 16.207031 -13.953125 11.703125 -12.347656 6.996094 -12.347656 Z M 6.996094 -12.347656 "/></g></g></g><g fill="#403f3c" fill-opacity="1"><g transform="translate(130.808275, 244.834854)"><g><path d="M 22.441406 -25.214844 L 21.796875 -25.214844 L 21.796875 -2.089844 L 2.050781 -25.695312 L 1.929688 -25.695312 L 1.929688 0.0820312 L 2.574219 0.0820312 L 2.574219 -22.800781 L 22.320312 0.765625 L 22.441406 0.765625 Z M 22.441406 -25.214844 "/></g></g></g><g fill="#403f3c" fill-opacity="1"><g transform="translate(155.377299, 244.834854)"><g><path d="M 15.441406 -25.695312 C 8.203125 -25.695312 1.609375 -21.835938 1.609375 -12.507812 C 1.609375 -1.769531 10.375 0.765625 15.441406 0.765625 C 20.46875 0.765625 29.277344 -1.769531 29.277344 -12.507812 C 29.277344 -21.835938 22.640625 -25.695312 15.441406 -25.695312 Z M 15.441406 0.0820312 C 10.898438 0.0820312 3.015625 -1.929688 3.015625 -12.507812 C 3.015625 -22.921875 11.542969 -25.054688 15.441406 -25.054688 C 19.34375 -25.054688 27.828125 -22.921875 27.828125 -12.507812 C 27.828125 -1.929688 19.945312 0.0820312 15.441406 0.0820312 Z M 15.441406 0.0820312 "/></g></g></g><g fill="#403f3c" fill-opacity="1"><g transform="translate(186.500749, 244.834854)"><g/></g></g><g fill="#403f3c" fill-opacity="1"><g transform="translate(196.553527, 244.834854)"><g><path d="M 9.570312 -25.214844 L 1.929688 -25.214844 L 1.929688 0.0820312 L 3.335938 0.0820312 L 3.335938 -11.703125 L 7.679688 -11.703125 C 8.886719 -11.703125 17.652344 -11.664062 17.652344 -18.902344 C 17.652344 -24.449219 11.621094 -25.214844 9.570312 -25.214844 Z M 6.996094 -12.347656 L 3.335938 -12.347656 L 3.335938 -24.570312 L 8.042969 -24.570312 C 12.144531 -24.570312 16.207031 -23.6875 16.207031 -18.457031 C 16.207031 -13.632812 11.703125 -12.347656 6.996094 -12.347656 Z M 6.996094 -12.347656 "/></g></g></g><g fill="#403f3c" fill-opacity="1"><g transform="translate(215.895088, 244.834854)"><g><path d="M 2.332031 0.0820312 L 3.738281 0.0820312 L 3.738281 -25.214844 L 2.332031 -25.214844 Z M 2.332031 0.0820312 "/></g></g></g><g fill="#403f3c" fill-opacity="1"><g transform="translate(222.127827, 244.834854)"><g><path d="M 3.335938 -0.601562 L 3.335938 -25.214844 L 1.929688 -25.214844 L 1.929688 0.0820312 L 14.839844 0.0820312 L 14.839844 -0.601562 Z M 3.335938 -0.601562 "/></g></g></g><g fill="#403f3c" fill-opacity="1"><g transform="translate(238.533969, 244.834854)"><g/></g></g><g fill="#403f3c" fill-opacity="1"><g transform="translate(248.586748, 244.834854)"><g><path d="M 15.441406 -25.695312 C 8.203125 -25.695312 1.609375 -21.835938 1.609375 -12.507812 C 1.609375 -1.769531 10.375 0.765625 15.441406 0.765625 C 20.46875 0.765625 29.277344 -1.769531 29.277344 -12.507812 C 29.277344 -21.835938 22.640625 -25.695312 15.441406 -25.695312 Z M 15.441406 0.0820312 C 10.898438 0.0820312 3.015625 -1.929688 3.015625 -12.507812 C 3.015625 -22.921875 11.542969 -25.054688 15.441406 -25.054688 C 19.34375 -25.054688 27.828125 -22.921875 27.828125 -12.507812 C 27.828125 -1.929688 19.945312 0.0820312 15.441406 0.0820312 Z M 15.441406 0.0820312 "/></g></g></g><g fill="#403f3c" fill-opacity="1"><g transform="translate(279.710197, 244.834854)"><g><path d="M 14.878906 -28.472656 L 16.328125 -29.960938 L 14.878906 -31.449219 L 13.390625 -29.960938 Z M 8.242188 -28.472656 L 9.691406 -29.960938 L 8.242188 -31.449219 L 6.757812 -29.960938 Z M 20.308594 -25.214844 L 20.308594 -9.652344 C 20.308594 -1.96875 16.367188 -0.28125 11.78125 -0.28125 C 5.429688 -0.28125 3.21875 -2.734375 3.21875 -9.289062 L 3.21875 -25.214844 L 1.808594 -25.214844 L 1.808594 -9.289062 C 1.808594 -1.125 5.46875 0.765625 11.21875 0.765625 C 17.652344 0.765625 20.992188 -2.652344 20.992188 -9.289062 L 20.992188 -25.214844 Z M 20.308594 -25.214844 "/></g></g></g><g fill="#403f3c" fill-opacity="1"><g transform="translate(146.247607, 272.925011)"><g><path d="M 0.960938 0 L 1.523438 0 L 1.523438 -3.121094 L 4.859375 -3.121094 C 6.480469 -3.121094 7.644531 -4.285156 7.644531 -5.785156 C 7.644531 -7.273438 6.480469 -8.398438 4.859375 -8.398438 L 0.960938 -8.398438 Z M 1.523438 -3.636719 L 1.523438 -7.859375 L 4.800781 -7.859375 C 6.144531 -7.859375 7.09375 -6.972656 7.09375 -5.773438 C 7.09375 -4.597656 6.144531 -3.636719 4.800781 -3.636719 Z M 1.523438 -3.636719 "/></g></g></g><g fill="#403f3c" fill-opacity="1"><g transform="translate(156.099623, 272.925011)"><g><path d="M 3.757812 0.144531 C 4.824219 0.144531 5.761719 -0.445312 6.238281 -1.378906 L 6.300781 -1.378906 L 6.3125 0 L 6.816406 0 L 6.816406 -6.40625 L 6.300781 -6.40625 L 6.300781 -2.914062 C 6.300781 -1.402344 5.21875 -0.347656 3.875 -0.347656 C 2.472656 -0.347656 1.453125 -1.332031 1.453125 -2.914062 L 1.453125 -6.40625 L 0.9375 -6.40625 L 0.9375 -2.902344 C 0.9375 -1.03125 2.113281 0.144531 3.757812 0.144531 Z M 3.757812 0.144531 "/></g></g></g><g fill="#403f3c" fill-opacity="1"><g transform="translate(165.651632, 272.925011)"><g><path d="M 1.152344 -8.101562 C 1.355469 -8.101562 1.523438 -8.269531 1.523438 -8.484375 C 1.523438 -8.6875 1.355469 -8.855469 1.152344 -8.855469 C 0.949219 -8.855469 0.769531 -8.6875 0.769531 -8.484375 C 0.769531 -8.269531 0.949219 -8.101562 1.152344 -8.101562 Z M 0.886719 0 L 1.414062 0 L 1.414062 -6.40625 L 0.886719 -6.40625 Z M 0.886719 0 "/></g></g></g><g fill="#403f3c" fill-opacity="1"><g transform="translate(169.743632, 272.925011)"><g><path d="M 3.730469 0.144531 C 4.535156 0.144531 5.050781 -0.109375 5.136719 -0.132812 L 5.027344 -0.601562 C 4.96875 -0.5625 4.5 -0.347656 3.769531 -0.347656 C 2.710938 -0.347656 2.257812 -0.910156 2.257812 -2.101562 L 2.257812 -5.941406 L 5.136719 -5.941406 L 5.136719 -6.40625 L 2.257812 -6.40625 L 2.257812 -7.753906 L 2.015625 -7.753906 L 0.121094 -6.167969 L 0.121094 -5.976562 L 1.738281 -5.976562 L 1.738281 -2.039062 C 1.738281 -0.625 2.386719 0.144531 3.730469 0.144531 Z M 3.730469 0.144531 "/></g></g></g><g fill="#403f3c" fill-opacity="1"><g transform="translate(176.967638, 272.925011)"><g><path d="M 3.730469 0.144531 C 4.535156 0.144531 5.050781 -0.109375 5.136719 -0.132812 L 5.027344 -0.601562 C 4.96875 -0.5625 4.5 -0.347656 3.769531 -0.347656 C 2.710938 -0.347656 2.257812 -0.910156 2.257812 -2.101562 L 2.257812 -5.941406 L 5.136719 -5.941406 L 5.136719 -6.40625 L 2.257812 -6.40625 L 2.257812 -7.753906 L 2.015625 -7.753906 L 0.121094 -6.167969 L 0.121094 -5.976562 L 1.738281 -5.976562 L 1.738281 -2.039062 C 1.738281 -0.625 2.386719 0.144531 3.730469 0.144531 Z M 3.730469 0.144531 "/></g></g></g><g fill="#403f3c" fill-opacity="1"><g transform="translate(184.191646, 272.925011)"><g><path d="M 3.949219 0.144531 C 5.808594 0.144531 7.296875 -1.222656 7.296875 -3.203125 C 7.296875 -5.171875 5.808594 -6.539062 3.949219 -6.539062 C 2.089844 -6.539062 0.601562 -5.171875 0.601562 -3.203125 C 0.601562 -1.222656 2.089844 0.144531 3.949219 0.144531 Z M 3.949219 -0.335938 C 2.375 -0.335938 1.117188 -1.511719 1.117188 -3.203125 C 1.117188 -4.894531 2.375 -6.058594 3.949219 -6.058594 C 5.519531 -6.058594 6.78125 -4.894531 6.78125 -3.203125 C 6.78125 -1.511719 5.519531 -0.335938 3.949219 -0.335938 Z M 3.949219 -0.335938 "/></g></g></g><g fill="#403f3c" fill-opacity="1"><g transform="translate(193.887658, 272.925011)"><g><path d="M 3.949219 0.144531 C 5.808594 0.144531 7.296875 -1.222656 7.296875 -3.203125 C 7.296875 -5.171875 5.808594 -6.539062 3.949219 -6.539062 C 2.089844 -6.539062 0.601562 -5.171875 0.601562 -3.203125 C 0.601562 -1.222656 2.089844 0.144531 3.949219 0.144531 Z M 3.949219 -0.335938 C 2.375 -0.335938 1.117188 -1.511719 1.117188 -3.203125 C 1.117188 -4.894531 2.375 -6.058594 3.949219 -6.058594 C 5.519531 -6.058594 6.78125 -4.894531 6.78125 -3.203125 C 6.78125 -1.511719 5.519531 -0.335938 3.949219 -0.335938 Z M 3.949219 -0.335938 "/></g></g></g><g fill="#403f3c" fill-opacity="1"><g transform="translate(203.58367, 272.925011)"><g><path d="M 3.730469 0.144531 C 4.535156 0.144531 5.050781 -0.109375 5.136719 -0.132812 L 5.027344 -0.601562 C 4.96875 -0.5625 4.5 -0.347656 3.769531 -0.347656 C 2.710938 -0.347656 2.257812 -0.910156 2.257812 -2.101562 L 2.257812 -5.941406 L 5.136719 -5.941406 L 5.136719 -6.40625 L 2.257812 -6.40625 L 2.257812 -7.753906 L 2.015625 -7.753906 L 0.121094 -6.167969 L 0.121094 -5.976562 L 1.738281 -5.976562 L 1.738281 -2.039062 C 1.738281 -0.625 2.386719 0.144531 3.730469 0.144531 Z M 3.730469 0.144531 "/></g></g></g><g fill="#403f3c" fill-opacity="1"><g transform="translate(210.807678, 272.925011)"><g><path d="M 4.066406 0.144531 C 5.171875 0.144531 6.226562 -0.214844 6.960938 -1.042969 L 6.625 -1.441406 C 6 -0.695312 5.050781 -0.335938 4.066406 -0.335938 C 2.363281 -0.335938 1.222656 -1.402344 1.128906 -2.976562 L 7.296875 -2.976562 L 7.296875 -3.203125 C 7.296875 -5.171875 5.820312 -6.539062 3.949219 -6.539062 C 2.089844 -6.539062 0.601562 -5.171875 0.601562 -3.203125 C 0.601562 -1.222656 1.980469 0.144531 4.066406 0.144531 Z M 1.128906 -3.445312 C 1.246094 -5.003906 2.460938 -6.058594 3.949219 -6.058594 C 5.449219 -6.058594 6.660156 -5.003906 6.769531 -3.445312 Z M 1.128906 -3.445312 "/></g></g></g><g fill="#403f3c" fill-opacity="1"><g transform="translate(220.50369, 272.925011)"><g><path d="M 3.863281 0.144531 C 5.089844 0.144531 6.144531 -0.480469 6.707031 -1.488281 L 6.792969 -1.488281 L 6.792969 0.0117188 L 7.308594 0.0117188 L 7.308594 -9.347656 L 6.792969 -9.347656 L 6.792969 -4.90625 L 6.707031 -4.90625 C 6.15625 -5.914062 5.101562 -6.539062 3.863281 -6.539062 C 2.039062 -6.539062 0.601562 -5.171875 0.601562 -3.203125 C 0.601562 -1.222656 2.039062 0.144531 3.863281 0.144531 Z M 3.949219 -0.335938 C 2.375 -0.335938 1.117188 -1.511719 1.117188 -3.203125 C 1.117188 -4.894531 2.375 -6.058594 3.949219 -6.058594 C 5.507812 -6.058594 6.769531 -4.894531 6.769531 -3.203125 C 6.769531 -1.511719 5.507812 -0.335938 3.949219 -0.335938 Z M 3.949219 -0.335938 "/></g></g></g></svg>