<svg xmlns="http://www.w3.org/2000/svg" xmlns:xlink="http://www.w3.org/1999/xlink" width="500" zoomAndPan="magnify" viewBox="0 0 375 374.999991" height="500" preserveAspectRatio="xMidYMid meet" version="1.0"><defs><clipPath id="8de8b52c2c"><path d="M 132.75 98.023438 L 242.175781 98.023438 L 242.175781 185.023438 L 132.75 185.023438 Z M 132.75 98.023438 " clip-rule="nonzero"/></clipPath></defs><g clip-path="url(#8de8b52c2c)"><path fill="#faf9f8" d="M 236.375 183.9375 L 173.054688 122.480469 L 187.460938 99.644531 L 240.621094 183.914062 L 236.421875 183.914062 Z M 217.011719 183.9375 L 196.105469 146.390625 L 234.8125 183.914062 L 217.054688 183.914062 Z M 179.445312 183.9375 L 181.363281 160.226562 L 214.957031 183.914062 L 179.464844 183.914062 Z M 180.203125 160.945312 L 178.328125 183.9375 L 161.554688 183.9375 Z M 193.671875 144.355469 L 215.023438 182.617188 L 181.722656 159.0625 Z M 172.566406 123.601562 L 193 143.414062 L 160.101562 183.9375 L 152.128906 183.9375 Z M 170.285156 126.871094 L 150.945312 183.914062 L 134.304688 183.914062 Z M 242.09375 184.183594 L 187.929688 98.28125 C 187.765625 98.019531 187.417969 97.945312 187.160156 98.113281 C 187.09375 98.15625 187.035156 98.214844 186.992188 98.28125 L 132.832031 184.183594 C 132.671875 184.445312 132.753906 184.792969 133.015625 184.953125 C 133.101562 185.003906 133.199219 185.03125 133.300781 185.035156 L 241.625 185.035156 C 241.933594 185.03125 242.179688 184.773438 242.175781 184.464844 C 242.171875 184.367188 242.144531 184.269531 242.09375 184.183594 " fill-opacity="1" fill-rule="nonzero"/></g></svg>